<svg id="Capa_1" enable-background="new 0 0 504.376 504.376" height="512" viewBox="0 0 504.376 504.376" width="512" xmlns="http://www.w3.org/2000/svg"><g><g><path d="m384.173 145.135-26.83 26.82-83.07-83.07 26.82-26.83c8.43-8.42 22.08-8.42 30.51 0l52.57 52.58c2.12 2.12 3.71 4.57 4.76 7.19 3.13 7.78 1.54 17-4.76 23.31z" fill="#b7cacc"/><path d="m384.173 145.135-26.83 26.82-61.85-61.85 25.61-25.61c8.42-8.42 22.08-8.42 30.5 0l37.33 37.33c3.13 7.78 1.54 17-4.76 23.31z" fill="#e1f1f3"/><path d="m247.383 74.805h-151.1c-35.733 0-64.7 28.967-64.7 64.7v292.67c0 35.733 28.967 64.7 64.7 64.7h208.36c35.733 0 64.7-28.967 64.7-64.7v-235.411c0-8.208-3.261-16.08-9.065-21.884l-91.01-91.01c-5.804-5.804-13.676-9.065-21.885-9.065zm-12.86 83.34c0 16.24-13.17 29.4-29.4 29.4h-100.9c-16.24 0-29.4-13.16-29.4-29.4v-12.04c0-16.24 13.16-29.4 29.4-29.4h100.9c16.23 0 29.4 13.16 29.4 29.4z" fill="#f1d05f"/><path d="m58.588 432.175v-292.67c0-35.73 28.97-64.7 64.7-64.7h-27c-35.73 0-64.7 28.97-64.7 64.7v292.67c0 35.73 28.97 64.7 64.7 64.7h27c-35.73 0-64.7-28.97-64.7-64.7z" fill="#ecbb4d"/><path d="m379.721 110.182-43.268-43.268 50.453-50.453c5.738-5.738 13.519-8.961 21.634-8.961h64.247v61.19h-51.574z" fill="#e1f1f3"/><path d="m357.04 86.413 50.453-50.453c5.738-5.738 13.519-8.961 21.634-8.961h43.66v-19.499h-64.247c-8.115 0-15.896 3.223-21.634 8.961l-50.453 50.453z" fill="#b7cacc"/><path d="m236.578 312.343s-23.222-48.41-52.466-64.069c-31.229 20.203-49.757 57.207-44.479 96.514 6.549 48.775 32.509 45.289 51.888 90.949 47.155-22.341 66.233-66.794 60.955-106.101-.603-4.491-2.437-15.841-3.605-20.092z" fill="#85ce64"/></g><g><path d="m274.568 78.569c-7.262-7.262-16.917-11.261-27.188-11.261h-151.094c-39.811 0-72.198 32.388-72.198 72.198v292.673c0 39.81 32.388 72.198 72.198 72.198h208.356c39.811 0 72.198-32.388 72.198-72.198v-50.697c0-4.142-3.357-7.5-7.5-7.5s-7.5 3.358-7.5 7.5v50.697c0 31.539-25.659 57.198-57.198 57.198h-208.356c-31.539 0-57.198-25.659-57.198-57.198v-292.674c0-31.539 25.659-57.198 57.198-57.198h151.095c6.264 0 12.151 2.439 16.58 6.868l91.012 91.011c4.429 4.428 6.868 10.317 6.868 16.581v159.713c0 4.142 3.357 7.5 7.5 7.5s7.5-3.358 7.5-7.5v-159.713c0-10.271-4-19.926-11.262-27.188z"/><path d="m242.019 158.145v-12.043c0-20.346-16.553-36.898-36.898-36.898h-100.902c-20.346 0-36.898 16.552-36.898 36.898v12.043c0 20.346 16.553 36.898 36.898 36.898h100.901c20.346.001 36.899-16.552 36.899-36.898zm-159.699 0v-12.043c0-12.075 9.823-21.898 21.898-21.898h100.902c12.075 0 21.898 9.824 21.898 21.898v12.043c0 12.075-9.823 21.898-21.898 21.898h-100.901c-12.075.001-21.899-9.823-21.899-21.898z"/><path d="m472.788 0h-64.248c-10.175 0-19.741 3.962-26.938 11.158l-45.156 45.157c-11.367-10.876-29.469-10.737-40.657.438l-10 10c-2.929 2.929-2.929 7.677 0 10.606 2.93 2.929 7.678 2.929 10.607 0l9.996-9.997c5.488-5.482 14.421-5.483 19.907-.004l4.763 4.764c.03.031.056.065.086.095l40.842 40.841 6.878 6.88c5.481 5.481 5.48 14.407 0 19.894l-10 10c-2.929 2.929-2.929 7.677 0 10.606 1.465 1.465 3.385 2.197 5.304 2.197s3.839-.732 5.304-2.197l10.003-10.003c11.039-11.052 11.311-28.849.826-40.23l34.015-34.015h48.468c4.143 0 7.5-3.358 7.5-7.5v-61.19c0-4.142-3.357-7.5-7.5-7.5zm-80.579 21.765c4.363-4.363 10.163-6.765 16.331-6.765h10.129l-4.673 50.301-4.536 4.536-32.209-33.115zm-45.146 45.146 19.581-19.581 32.209 33.115-19.131 19.131zm118.225-5.721h-35.845l4.291-46.19h31.554z"/><path d="m159.164 400.832c8.626 9.441 17.546 19.203 25.454 37.835.799 1.88 2.329 3.354 4.238 4.08.86.327 1.764.49 2.666.49 1.1 0 2.197-.242 3.211-.722 23.61-11.186 42.128-28.457 53.551-49.946 10.404-19.573 14.533-42.278 11.626-63.931-.559-4.158-2.445-16.131-3.806-21.082-1.064-3.87-4.986-6.216-8.897-5.326l-6.605 1.504c-7.179-13.508-27.597-48.498-52.949-62.073-2.404-1.288-5.32-1.168-7.614.315-8.339 5.395-15.889 11.936-22.441 19.44-2.725 3.12-2.403 7.858.717 10.582 3.121 2.725 7.859 2.404 10.582-.717 4.623-5.295 9.823-10.031 15.499-14.122 24.987 16.343 45.211 57.988 45.421 58.426 1.515 3.157 5.009 4.846 8.428 4.069l4.856-1.106c.791 4.37 1.581 9.383 1.943 12.084 3.648 27.163-5.422 64.578-40.401 88.89 6.997-21.492 13.969-49.852-.666-86.659-1.531-3.849-5.89-5.728-9.741-4.198-3.849 1.531-5.729 5.891-4.198 9.74 13.007 32.709 6.583 57.524-.061 77.7-6.594-10.994-13.457-18.52-19.739-25.394-11.049-12.091-19.775-21.642-23.17-46.924-2.359-17.562.372-35.275 7.897-51.223 1.769-3.746.164-8.216-3.581-9.983-3.746-1.767-8.216-.164-9.984 3.582-8.763 18.569-11.943 39.186-9.199 59.621 4.02 29.939 15.164 42.135 26.963 55.048z"/></g></g></svg>